<?xml version="1.0" standalone="no"?>
<!DOCTYPE svg PUBLIC "-//W3C//DTD SVG 20010904//EN"
 "http://www.w3.org/TR/2001/REC-SVG-20010904/DTD/svg10.dtd">
<svg version="1.0" xmlns="http://www.w3.org/2000/svg"
 width="2000.000000pt" height="2000.000000pt" viewBox="0 0 2000.000000 2000.000000"
 preserveAspectRatio="xMidYMid meet">
<metadata>
Created by potrace 1.15, written by Peter Selinger 2001-2017
</metadata>
<g transform="translate(0.000000,2000.000000) scale(0.100000,-0.100000)"
fill="#000000" stroke="none">
<path d="M9688 18925 c-403 -51 -788 -190 -1112 -402 -605 -395 -1016 -1001
-1151 -1697 -30 -153 -45 -290 -45 -406 l0 -91 -77 70 c-427 386 -922 611
-1491 677 -167 20 -502 14 -662 -11 -551 -85 -1039 -325 -1432 -703 -153 -148
-257 -272 -369 -440 -212 -319 -358 -696 -414 -1072 -23 -148 -30 -459 -16
-616 54 -580 301 -1130 695 -1551 l58 -63 -65 0 c-232 0 -576 -66 -826 -157
-141 -52 -380 -168 -491 -239 -227 -145 -491 -377 -650 -576 -319 -396 -518
-875 -570 -1373 -8 -81 -10 -1214 -8 -4310 l4 -4200 21 -86 c92 -369 283 -560
652 -652 l86 -22 8120 -3 c6157 -2 8142 0 8210 9 380 49 625 242 728 574 55
179 52 -107 52 4435 0 3997 -1 4211 -18 4325 -79 525 -271 957 -603 1351 -460
547 -1142 884 -1859 921 l-124 6 72 81 c250 279 421 566 538 903 270 782 161
1636 -297 2323 -251 378 -608 690 -1018 890 -197 97 -315 140 -510 190 -210
53 -349 72 -577 77 -286 8 -505 -18 -772 -92 -388 -106 -785 -326 -1066 -591
l-78 -73 -7 125 c-20 363 -108 698 -266 1020 -209 424 -521 778 -915 1036
-318 209 -661 340 -1052 404 -137 22 -552 28 -695 9z m589 -1214 c433 -89 794
-365 993 -760 53 -107 105 -261 126 -381 24 -128 24 -362 0 -490 -45 -249
-166 -501 -335 -695 l-61 -70 0 -1445 0 -1445 1024 1024 1024 1024 7 86 c11
134 33 247 70 359 161 482 561 835 1068 944 146 31 408 31 554 0 437 -94 786
-362 989 -760 162 -317 192 -722 79 -1068 -143 -436 -482 -775 -916 -912 -103
-33 -228 -57 -354 -67 l-80 -6 -1017 -1017 c-560 -559 -1018 -1020 -1018
-1024 0 -5 648 -8 1440 -8 l1441 0 75 66 c191 166 425 280 681 331 132 26 395
23 530 -5 643 -137 1095 -662 1136 -1319 l4 -73 -7740 0 -7740 0 7 93 c38 506
332 949 782 1175 106 53 233 97 357 124 134 28 387 31 523 5 254 -47 518 -176
701 -341 l61 -56 1441 0 c793 0 1441 3 1441 8 0 4 -458 464 -1017 1023 l-1018
1017 -125 12 c-567 54 -1032 413 -1219 943 -57 163 -75 272 -75 467 0 142 4
194 22 277 62 286 188 519 392 723 206 207 458 340 750 396 127 24 369 24 498
0 634 -117 1101 -629 1164 -1276 l12 -125 1015 -1017 c558 -560 1019 -1018
1023 -1018 4 0 8 650 8 1444 0 1315 -1 1445 -16 1457 -29 24 -130 153 -176
224 -96 148 -158 301 -200 486 -33 148 -32 416 1 569 61 282 184 507 390 710
64 63 150 138 191 166 187 128 419 215 646 244 108 14 326 4 441 -19z m-4632
-8386 c750 -116 1381 -576 1715 -1250 136 -274 205 -536 234 -892 l6 -63 -633
0 -633 0 -16 104 c-64 400 -353 716 -756 829 -65 18 -104 21 -252 21 -161 0
-182 -2 -265 -28 -188 -56 -332 -144 -462 -279 -126 -132 -208 -275 -255 -447
-20 -74 -23 -107 -22 -260 0 -161 2 -182 27 -265 73 -241 217 -440 412 -570
178 -119 321 -161 590 -176 305 -16 468 -44 695 -119 346 -114 634 -292 895
-554 368 -368 586 -814 656 -1336 16 -122 16 -428 0 -550 -70 -527 -298 -987
-668 -1352 -186 -183 -357 -305 -593 -422 -764 -379 -1683 -295 -2365 215
-305 228 -524 493 -690 834 -135 275 -204 535 -230 863 l-6 82 634 0 634 0 7
-64 c14 -142 78 -314 163 -443 85 -130 251 -277 393 -348 304 -153 681 -138
982 41 113 67 275 229 342 342 105 178 152 361 143 567 -6 154 -33 259 -102
400 -140 287 -385 480 -705 555 -25 6 -131 15 -236 20 -397 19 -661 83 -971
235 -467 229 -821 584 -1048 1050 -110 226 -172 426 -212 685 -24 159 -24 472
1 635 81 538 328 1004 725 1368 361 331 821 535 1321 587 118 12 424 4 545
-15z m3810 -2290 l480 -2316 50 3 49 3 472 2278 c260 1253 475 2294 478 2313
l7 34 629 0 c552 0 630 -2 630 -15 0 -8 -364 -1777 -810 -3930 -445 -2153
-810 -3917 -810 -3920 0 -3 -290 -5 -645 -5 l-645 0 -5 23 c-7 28 -1625 7840
-1625 7844 0 2 285 3 633 3 l632 0 480 -2315z m5535 2290 c863 -133 1573 -739
1839 -1569 54 -167 94 -384 104 -563 l4 -73 -632 0 c-700 0 -645 -6 -645 65 0
101 -85 330 -169 453 -261 385 -756 541 -1201 378 -63 -23 -182 -89 -238 -131
-78 -59 -191 -176 -238 -247 -61 -91 -118 -216 -146 -318 l-23 -85 0 -1820 0
-1820 23 -85 c29 -105 97 -252 156 -334 56 -78 164 -186 242 -242 82 -59 229
-127 334 -156 74 -20 108 -23 255 -22 142 0 183 4 247 22 186 51 333 135 464
266 134 135 221 284 271 471 l27 100 4 583 3 582 -485 0 -486 0 0 635 0 635
1120 0 1121 0 -4 -1247 c-3 -1093 -5 -1260 -20 -1348 -84 -519 -282 -923 -627
-1279 -194 -200 -381 -337 -630 -460 -1292 -640 -2857 80 -3215 1478 -75 291
-70 144 -70 2231 0 1733 1 1878 18 1980 113 713 534 1314 1164 1664 266 147
593 246 913 275 92 8 419 -4 520 -19z"/>
</g>
</svg>
