<?xml version="1.0" encoding="iso-8859-1"?>
<!-- Generator: Adobe Illustrator 21.0.0, SVG Export Plug-In . SVG Version: 6.00 Build 0)  -->
<svg xmlns="http://www.w3.org/2000/svg" xmlns:xlink="http://www.w3.org/1999/xlink" version="1.1" id="Capa_1" x="0px" y="0px" viewBox="0 0 512 512" style="enable-background:new 0 0 512 512;" xml:space="preserve" width="512" height="512">
<g>
	<path d="M256,337.4c44.88,0,81.4-36.52,81.4-81.4s-36.52-81.4-81.4-81.4s-81.4,36.52-81.4,81.4S211.12,337.4,256,337.4z    M256,208.87c25.99,0,47.13,21.14,47.13,47.13s-21.14,47.13-47.13,47.13s-47.13-21.14-47.13-47.13S230.01,208.87,256,208.87z"/>
	<path d="M470.375,367.132l-112.009-67.205c-11.269,26.16-32.279,47.171-58.439,58.44l67.206,112.009   c4.238,7.062,13.443,9.439,20.598,5.134c35.847-21.578,66.2-51.932,87.779-87.779C479.782,380.631,477.486,371.399,470.375,367.132   z"/>
	<path d="M269.846,366.541c-4.538,0.565-9.158,0.86-13.846,0.86c-61.426,0-111.4-49.974-111.4-111.4   c0-4.688,0.295-9.308,0.86-13.846L26.19,170.593c-3.301-1.98-6.287-4.339-8.923-7.007C6.126,192.266,0,223.429,0,256   c0,141.16,114.84,256,256,256c32.585,0,63.762-6.132,92.454-17.282c-2.69-2.635-5.07-5.615-7.045-8.906L269.846,366.541z"/>
	<path d="M256,0c-32.586,0-63.763,6.132-92.455,17.282c2.691,2.634,5.071,5.615,7.046,8.905l71.563,119.272   c4.538-0.565,9.158-0.86,13.846-0.86c61.426,0,111.4,49.974,111.4,111.4c0,4.688-0.295,9.308-0.86,13.846l119.27,71.562   c3.301,1.98,6.287,4.338,8.923,7.007C505.874,319.734,512,288.57,512,256C512,114.84,397.16,0,256,0z"/>
	<path d="M41.625,144.868l112.009,67.205c11.269-26.16,32.279-47.171,58.439-58.44L144.868,41.625   c-4.263-7.104-13.492-9.409-20.598-5.134c-35.847,21.578-66.2,51.932-87.779,87.779C32.218,131.369,34.514,140.601,41.625,144.868z   "/>
</g>















</svg>
