<?xml version="1.0" encoding="iso-8859-1"?>
<!-- Generator: Adobe Illustrator 19.0.0, SVG Export Plug-In . SVG Version: 6.00 Build 0)  -->
<svg version="1.1" id="Capa_1" xmlns="http://www.w3.org/2000/svg" xmlns:xlink="http://www.w3.org/1999/xlink" x="0px" y="0px"
	 viewBox="0 0 495.872 495.872" style="enable-background:new 0 0 495.872 495.872;" xml:space="preserve">
<g>
	<g>
		<path d="M423.938,72.943c-0.004-0.002-0.008-0.004-0.012-0.007h0c-3.831-2.2-8.719-0.878-10.92,2.952l-16.8,29.208
			c-2.694-0.773-5.478-1.185-8.28-1.224c-17.673,0.026-31.979,14.373-31.954,32.046c0.012,8.524,3.425,16.691,9.482,22.69
			l-25.744,44.8l-32-133.368c-0.343-1.435-1.077-2.748-2.12-3.792l-64-64c-3.178-2.998-8.142-2.998-11.32,0l-64,64
			c-1.043,1.044-1.777,2.357-2.12,3.792l-96,400c-1.012,4.301,1.654,8.608,5.955,9.619c0.597,0.14,1.208,0.212,1.821,0.213h40v8
			c0,4.418,3.582,8,8,8h72c4.418,0,8-3.582,8-8v-8h64v8c0,4.418,3.582,8,8,8h72c4.418,0,8-3.582,8-8v-8h40
			c4.418-0.002,7.998-3.586,7.996-8.004c0-0.627-0.074-1.251-0.22-1.86l-58.552-244l34.2-59.464c2.783,0.838,5.67,1.285,8.576,1.328
			c17.642,0.031,31.969-14.246,31.999-31.888c0.015-8.687-3.509-17.006-9.759-23.039l16.696-29.072
			C429.073,80.047,427.763,75.154,423.938,72.943z M385.774,463.872H86.078l93.104-387.936l56.744-56.752l56.744,56.752
			l35.432,147.624l-5.776,10.096L285.942,82.192c-0.343-1.435-1.077-2.748-2.12-3.792l-42.24-42.248
			c-3.178-2.998-8.142-2.998-11.32,0l-42.232,42.24c-1.043,1.044-1.777,2.357-2.12,3.792L98.59,446.008
			c-1.029,4.297,1.619,8.614,5.916,9.644c0.609,0.146,1.234,0.22,1.86,0.22h259.16c4.418-0.002,7.998-3.586,7.996-8.004
			c0-0.627-0.074-1.251-0.22-1.86l-45.568-189.712l5.8-10.088L385.774,463.872z M259.926,391.872h-10.168l66.4-115.392
			l39.176,163.392h-87.408v-40C267.926,395.454,264.344,391.872,259.926,391.872z M219.926,407.872h32v32h-32V407.872z
			 M211.926,391.872c-4.418,0-8,3.582-8,8v40h-87.408l84.416-351.76l34.992-34.992l34.992,35l39.768,165.72l-79.392,138.032H211.926
			z M387.926,151.872c-8.837,0-16-7.163-16-16s7.163-16,16-16s16,7.163,16,16S396.763,151.872,387.926,151.872z"/>
	</g>
</g>
<g>
</g>
<g>
</g>
<g>
</g>
<g>
</g>
<g>
</g>
<g>
</g>
<g>
</g>
<g>
</g>
<g>
</g>
<g>
</g>
<g>
</g>
<g>
</g>
<g>
</g>
<g>
</g>
<g>
</g>
</svg>
