<?xml version="1.0" standalone="no"?>
<!DOCTYPE svg PUBLIC "-//W3C//DTD SVG 20010904//EN"
 "http://www.w3.org/TR/2001/REC-SVG-20010904/DTD/svg10.dtd">
<svg version="1.0" xmlns="http://www.w3.org/2000/svg"
 width="600.000000pt" height="142.000000pt" viewBox="0 0 600.000000 142.000000"
 preserveAspectRatio="xMidYMid meet">
<metadata>
Created by potrace 1.15, written by Peter Selinger 2001-2017
</metadata>
<g transform="translate(0.000000,142.000000) scale(0.100000,-0.100000)"
fill="#000000" stroke="none">
<path d="M750 930 l0 -70 -135 0 c-83 0 -135 -4 -135 -10 0 -6 52 -10 135 -10
l135 0 0 -70 0 -70 -135 0 c-83 0 -135 -4 -135 -10 0 -6 52 -10 135 -10 l135
0 0 -66 c0 -59 -2 -65 -17 -58 -57 25 -173 4 -173 -31 0 -11 -11 -15 -40 -15
-22 0 -40 -4 -40 -10 0 -5 16 -10 35 -10 30 0 35 -3 35 -23 0 -54 80 -97 150
-82 38 8 80 52 80 82 0 21 5 23 50 23 28 0 50 5 50 10 0 6 -22 10 -50 10 l-50
0 0 85 0 85 50 0 c28 0 50 5 50 10 0 6 -22 10 -50 10 l-50 0 0 70 0 70 50 0
c28 0 50 5 50 10 0 6 -22 10 -50 10 l-50 0 0 70 c0 56 -3 70 -15 70 -12 0 -15
-14 -15 -70z"/>
<path d="M5282 979 c-36 -14 -61 -50 -62 -86 l0 -33 -65 0 c-37 0 -65 -4 -65
-10 0 -6 28 -10 65 -10 l65 0 0 -70 0 -70 -65 0 c-37 0 -65 -4 -65 -10 0 -6
28 -10 65 -10 l65 0 0 -85 0 -85 -65 0 c-37 0 -65 -4 -65 -10 0 -6 28 -10 65
-10 l65 0 0 -60 c0 -47 3 -60 15 -60 12 0 15 13 15 60 l0 60 140 0 c87 0 140
4 140 10 0 6 -53 10 -140 10 l-140 0 0 85 0 85 140 0 c87 0 140 4 140 10 0 6
-53 10 -140 10 l-140 0 0 61 c0 55 2 60 18 53 40 -18 99 -16 143 5 23 12 60
21 81 21 21 0 38 5 38 10 0 6 -18 10 -40 10 -38 0 -40 1 -40 33 -1 72 -90 118
-168 86z"/>
<path d="M1345 888 c-43 -15 -94 -67 -107 -109 -23 -77 13 -117 125 -139 79
-15 97 -25 97 -53 0 -43 -36 -67 -99 -67 -53 0 -71 8 -82 36 -7 20 -16 24 -49
24 -38 0 -40 -2 -40 -30 0 -64 64 -110 153 -110 121 0 207 72 207 173 0 50
-31 73 -135 99 -76 20 -90 26 -93 45 -2 12 6 31 17 42 38 38 151 19 151 -25 0
-10 12 -14 40 -14 40 0 40 0 40 38 0 42 -24 73 -73 91 -35 14 -112 13 -152 -1z"/>
<path d="M1675 878 c-7 -22 -85 -404 -85 -416 0 -7 16 -12 39 -12 l40 0 16 78
c31 147 55 188 107 180 39 -6 44 -30 24 -130 -10 -50 -21 -100 -24 -111 -4
-16 0 -18 38 -15 l44 3 22 105 c31 139 30 165 -2 197 -22 22 -32 25 -70 20
-28 -3 -55 -13 -70 -28 -28 -26 -28 -25 -9 61 8 36 14 68 15 73 0 13 -80 8
-85 -5z"/>
<path d="M2916 873 c-8 -28 -86 -399 -86 -411 0 -7 17 -12 43 -12 l43 0 14 68
c23 117 21 116 91 109 84 -7 89 -14 74 -89 -17 -81 -13 -90 42 -86 l44 3 5 92
c5 83 3 93 -14 104 -19 12 -18 13 12 33 65 44 83 138 35 182 -18 16 -41 19
-159 22 -127 3 -139 2 -144 -15z m230 -74 c21 -17 17 -47 -11 -74 -21 -22 -33
-25 -95 -25 l-71 0 7 38 c15 84 17 86 90 79 37 -4 73 -12 80 -18z"/>
<path d="M4205 815 l-16 -75 -26 20 c-80 62 -208 -34 -228 -171 -8 -55 12
-110 49 -135 32 -20 98 -14 127 12 18 16 19 16 19 0 0 -14 8 -17 42 -14 l41 3
44 205 c23 113 43 211 43 218 0 7 -14 12 -39 12 l-39 0 -17 -75z m-55 -120
c31 -38 -1 -162 -46 -179 -52 -20 -84 4 -84 63 0 92 86 169 130 116z"/>
<path d="M2716 852 c-2 -4 -7 -24 -11 -45 -6 -30 -11 -37 -31 -37 -20 0 -24
-5 -24 -30 0 -20 5 -30 15 -30 19 0 19 -3 -7 -128 l-22 -105 23 -18 c31 -25
87 -25 101 0 14 27 13 41 -4 41 -24 0 -28 18 -16 78 23 115 30 132 51 132 12
0 23 10 29 26 13 34 14 34 -16 34 -19 0 -24 4 -20 18 21 72 21 72 -22 72 -23
0 -43 -3 -46 -8z"/>
<path d="M2063 761 c-70 -32 -124 -144 -109 -224 14 -77 104 -116 191 -83 41
16 95 65 95 87 0 18 -76 10 -95 -11 -20 -22 -74 -27 -93 -8 -7 7 -12 25 -12
40 l0 28 109 0 108 0 7 40 c7 46 -10 95 -43 124 -31 28 -106 31 -158 7z"/>
<path d="M2392 759 c-76 -38 -129 -169 -98 -243 29 -70 111 -94 192 -57 38 17
84 62 84 82 0 17 -62 9 -87 -11 -49 -38 -113 -18 -113 36 0 24 0 24 109 24
104 0 109 1 115 23 24 90 -34 167 -126 167 -18 0 -52 -10 -76 -21z"/>
<path d="M3375 766 c-70 -31 -115 -110 -115 -201 0 -49 4 -60 28 -85 32 -32
85 -46 138 -36 37 8 114 69 114 92 0 21 -58 17 -87 -6 -48 -38 -113 -15 -113
38 0 21 4 22 109 22 120 0 121 1 121 66 0 97 -99 153 -195 110z"/>
<path d="M3704 766 c-33 -15 -74 -60 -74 -82 0 -23 73 -18 88 6 15 25 79 28
88 5 10 -25 -14 -44 -64 -50 -72 -10 -128 -41 -146 -79 -19 -40 -19 -48 -5
-79 22 -48 81 -59 142 -28 29 15 37 16 37 5 0 -10 14 -14 50 -14 49 0 49 0 44
28 -3 16 4 73 16 128 11 54 18 109 15 122 -11 46 -122 68 -191 38z"/>
<path d="M4403 761 c-70 -32 -124 -144 -109 -224 14 -77 104 -116 191 -83 41
16 95 65 95 87 0 18 -76 10 -95 -11 -20 -22 -74 -27 -93 -8 -7 7 -12 25 -12
40 l0 28 109 0 108 0 7 40 c7 46 -10 95 -43 124 -31 28 -106 31 -158 7z"/>
<path d="M4806 755 c-34 -23 -36 -23 -36 -5 0 17 -7 20 -39 20 l-39 0 -17 -77
c-9 -43 -25 -115 -35 -160 l-18 -83 43 0 42 0 18 88 c10 48 24 100 32 115 15
30 56 51 85 44 10 -3 18 -2 18 1 0 4 4 24 9 45 8 32 7 37 -9 37 -9 0 -34 -11
-54 -25z"/>
</g>
</svg>
